# xmcd
#
# Track frame offsets: 
#        150
#        23340
#        36973
#        51568
#        67603
#        79667
#        100904
#        122008
#        141668
#        186316
#        198877
#        225939
#        288725
#
# Disc length: 4060 seconds
#
# Revision: 0
# Processed by: cddbd v1.5.2PL0 Copyright (c) Steve Scherf et al.
# Submitted via: ExactAudioCopy v1.3
#
DISCID=b10fda0d
DTITLE=Simo - Let Love Show The Way
DYEAR=2016
DGENRE=Blues Rock
TTITLE0=Stranger Blues
TTITLE1=Two Timin' Woman
TTITLE2=Can't Say Her Name
TTITLE3=I Lied
TTITLE4=Please
TTITLE5=Long May You Sail
TTITLE6=I'll Always Be Around
TTITLE7=I’d Rather Die In Vain
TTITLE8=Today I Am Here
TTITLE9=Let Love Show The Way
TTITLE10=Ain't Doin' Nothin'
TTITLE11=Please Be With Me
TTITLE12=Let Love Show The Way (Bonus Track)
EXTD=
EXTT0=
EXTT1=
EXTT2=
EXTT3=
EXTT4=
EXTT5=
EXTT6=
EXTT7=
EXTT8=
EXTT9=
EXTT10=
EXTT11=
EXTT12=
PLAYORDER=
